<?xml version="1.0" encoding="iso-8859-1"?>
<!-- Generator: Adobe Illustrator 16.0.0, SVG Export Plug-In . SVG Version: 6.00 Build 0)  -->
<!DOCTYPE svg PUBLIC "-//W3C//DTD SVG 1.1//EN" "http://www.w3.org/Graphics/SVG/1.1/DTD/svg11.dtd">
<svg version="1.1" id="Capa_1" xmlns="http://www.w3.org/2000/svg" xmlns:xlink="http://www.w3.org/1999/xlink" x="0px" y="0px"
	 width="376.834px" height="376.834px" viewBox="0 0 376.834 376.834" style="enable-background:new 0 0 376.834 376.834;"
	 xml:space="preserve">
<g>
	<g>
		<path d="M276.434,0H86.163v256.698c0,5.688-4.612,10.302-10.302,10.302s-10.302-4.611-10.302-10.302V0H47.026
			C24.135,0,5.579,18.558,5.579,41.447v293.939c0,22.891,18.557,41.447,41.447,41.447h229.408c22.891,0,41.446-18.558,41.446-41.447
			V41.447C317.881,18.558,299.325,0,276.434,0z M217.028,211.505c21.156,0,29.843,10.916,29.658,29.154
			c-0.284,26.28-12.838,41.955-29.658,41.955c-16.825,0-29.375-15.675-29.66-41.955C187.19,222.421,195.869,211.505,217.028,211.505
			z M276.434,361.834H47.026c-11.625,0-21.521-7.54-25.059-17.986h104.6h29.848c0.039-0.132,0.072-0.267,0.115-0.396
			c1.877-5.664,15.818-38.56,32.329-47.819c0.337-0.186,9.571-5.123,12.323-6.593l0,0l4.584-4.521
			c0.338-0.334,0.797-0.512,1.277-0.494c0.475,0.021,0.922,0.238,1.231,0.599l7.612,8.854c0.681,0.68,1.93,0.6,2.527,0.002
			l7.616-8.856c0.31-0.36,0.756-0.577,1.231-0.599c0.476-0.016,0.938,0.16,1.275,0.494l4.637,4.562l11.987,6.5
			c16.539,9.276,30.482,42.171,32.361,47.837c0.047,0.143,0.083,0.287,0.125,0.431h2.506h21.338
			C297.958,354.294,288.061,361.834,276.434,361.834z"/>
		<path d="M352.443,50.987h-15.427v61.454h15.427c10.388,0,18.812-8.423,18.812-18.813V69.799
			C371.255,59.41,362.831,50.987,352.443,50.987z"/>
		<path d="M352.443,127.778h-15.427v61.455h15.427c10.388,0,18.812-8.423,18.812-18.813V146.59
			C371.255,136.201,362.831,127.778,352.443,127.778z"/>
		<path d="M352.443,204.568h-15.427v61.455h15.427c10.388,0,18.812-8.424,18.812-18.813v-23.828
			C371.255,212.992,362.831,204.568,352.443,204.568z"/>
	</g>
</g>
<g>
</g>
<g>
</g>
<g>
</g>
<g>
</g>
<g>
</g>
<g>
</g>
<g>
</g>
<g>
</g>
<g>
</g>
<g>
</g>
<g>
</g>
<g>
</g>
<g>
</g>
<g>
</g>
<g>
</g>
</svg>
